<svg xmlns="http://www.w3.org/2000/svg" width="400" height="100" viewBox="0 0 400 100">
  <!-- Orange background -->
  <rect width="400" height="100" rx="12" fill="#FF6B00"/>
  <!-- Icon -->
  <rect x="12" y="10" width="60" height="75" rx="8" fill="rgba(255,255,255,0.2)"/>
  <rect x="18" y="4" width="48" height="16" rx="5" fill="rgba(255,255,255,0.2)"/>
  <rect x="20" y="22" width="44" height="28" rx="3" fill="rgba(255,255,255,0.15)"/>
  <rect x="25" y="28" width="22" height="3" rx="1.5" fill="white"/>
  <rect x="25" y="34" width="15" height="3" rx="1.5" fill="rgba(255,255,255,0.6)"/>
  <rect x="25" y="40" width="18" height="3" rx="1.5" fill="rgba(255,255,255,0.4)"/>
  <rect x="20" y="57" width="44" height="10" rx="3" fill="rgba(255,255,255,0.15)"/>
  <rect x="20" y="78" width="44" height="6" rx="3" fill="rgba(255,255,255,0.2)"/>
  <path d="M72 20 Q90 20 90 35 Q90 55 82 58" fill="none" stroke="rgba(255,255,255,0.4)" stroke-width="5" stroke-linecap="round"/>
  <rect x="75" y="55" width="12" height="7" rx="3" fill="rgba(255,255,255,0.3)"/>
  <!-- Coin -->
  <circle cx="90" cy="72" r="26" fill="rgba(255,255,255,0.15)"/>
  <circle cx="90" cy="72" r="22" fill="white"/>
  <circle cx="90" cy="72" r="17" fill="none" stroke="rgba(255,107,0,0.3)" stroke-width="1.5"/>
  <text x="90" y="80" text-anchor="middle" fill="#FF6B00" font-size="18" font-weight="900" font-family="system-ui">$</text>
  <!-- Wordmark white -->
  <text x="128" y="62" font-family="'Segoe UI', system-ui, sans-serif" font-size="38" font-weight="800" letter-spacing="-1.5" fill="white">Posto</text>
  <text x="241" y="62" font-family="'Segoe UI', system-ui, sans-serif" font-size="38" font-weight="800" letter-spacing="-1.5" fill="rgba(255,255,255,0.85)">Cash</text>
  <text x="129" y="80" font-family="system-ui" font-size="10" font-weight="500" letter-spacing="2" fill="rgba(255,255,255,0.6)">FIDELIDADE INTELIGENTE</text>
</svg>
