<svg xmlns="http://www.w3.org/2000/svg" width="100" height="100" viewBox="0 0 100 100">
  <!-- Background circle -->
  <circle cx="50" cy="50" r="48" fill="#1e293b"/>
  <!-- Pump body -->
  <rect x="18" y="28" width="38" height="48" rx="5" fill="white" opacity="0.9"/>
  <rect x="22" y="22" width="30" height="12" rx="4" fill="white" opacity="0.9"/>
  <!-- Screen -->
  <rect x="22" y="34" width="30" height="18" rx="2" fill="#fff7ed"/>
  <rect x="25" y="38" width="14" height="2" rx="1" fill="#FF6B00"/>
  <rect x="25" y="42" width="10" height="2" rx="1" fill="#FF6B00" opacity="0.5"/>
  <rect x="25" y="46" width="12" height="2" rx="1" fill="#FF6B00" opacity="0.3"/>
  <!-- Pump base -->
  <rect x="18" y="71" width="38" height="5" rx="2.5" fill="white" opacity="0.5"/>
  <!-- Hose -->
  <path d="M56 34 Q68 34 68 46 Q68 60 62 62" fill="none" stroke="rgba(255,255,255,0.6)" stroke-width="3.5" stroke-linecap="round"/>
  <rect x="58" y="59" width="8" height="5" rx="2" fill="rgba(255,255,255,0.5)"/>
  <!-- Coin -->
  <circle cx="65" cy="72" r="20" fill="white" stroke="#FF6B00" stroke-width="2"/>
  <circle cx="65" cy="72" r="16" fill="#FF6B00"/>
  <text x="65" y="79" text-anchor="middle" fill="white" font-size="14" font-weight="900" font-family="system-ui">$</text>
</svg>
